# xmcd CD database file
#
# Track frame offsets:
#	150
#	19550
#	39150
#	58745
#	77842
#
# Disc length: 1329 seconds
#
# Revision: 0
# Processed by: cddbd v1.5.2PL0 Copyright (c) Steve Scherf et al.
# Submitted via: CDex 1.70beta2
#
DISCID=30052f05
DTITLE=Casey Watt - Lost in your eyes
DYEAR=2000
DGENRE=Country
TTITLE0=Guess I like my freedom too much
TTITLE1=Sometimes for happiness
TTITLE2=Lost in your eyes
TTITLE3=Wrinkles
TTITLE4=Journey of life
EXTD=YEAR: 2000
EXTT0=
EXTT1=
EXTT2=
EXTT3=
EXTT4=
PLAYORDER=
